<?xml version="1.0" encoding="utf-8"?>
<svg 
    xmlns="http://www.w3.org/2000/svg" 
    xmlns:xlink="http://www.w3.org/1999/xlink"
    version="1.1"
    width="600" 
    height="600"
>
<title>Avatar</title>
<g>
<defs>
<linearGradient gradientUnits="userSpaceOnUse" x1="300" x2="300" y1="600" y2="0" id="back">
<stop offset="0%" stop-color="#e0e0e0"/>
<stop offset="100%" stop-color="#f0f0f0"/>
</linearGradient>
<g id="form">
<!--
based on sequence [r1m6662p626244266244842448668448686862z]
-->
<path 
    d="M 325,100 L 375,100 C 388.8075,100.0 400.0,111.1925 400,125 L 400,175 C 400.0,188.8075 411.1925,200.0 425,200 L 475,200 C 488.8075,200.0 500.0,211.1925 500,225 L 500,275 C 500.0,288.8075 488.8075,300.0 475,300 L 325,300 C 311.1925,300.0 300.0,311.1925 300,325 L 300,375 C 300.0,388.8075 311.1925,400.0 325,400 L 475,400 C 488.8075,400.0 500.0,411.1925 500,425 L 500,475 C 500.0,488.8075 488.8075,500.0 475,500 L 325,500 C 311.1925,500.0 300.0,488.8075 300,475 L 300,425 C 300.0,411.1925 288.8075,400.0 275,400 L 225,400 C 211.1925,400.0 200.0,411.1925 200,425 L 200,475 C 200.0,488.8075 188.8075,500.0 175,500 L 25,500 C 11.1925,500.0 0.0,488.8075 0,475 L 0,425 C 0.0,411.1925 11.1925,400.0 25,400 L 175,400 C 188.8075,400.0 200.0,388.8075 200,375 L 200,325 C 200.0,311.1925 188.8075,300.0 175,300 L 25,300 C 11.1925,300.0 0.0,288.8075 0,275 L 0,225 C 0.0,211.1925 11.1925,200.0 25,200 L 75,200 C 88.8075,200.0 100.0,188.8075 100,175 L 100,125 C 100.0,111.1925 111.1925,100.0 125,100 L 175,100 C 188.8075,100.0 200.0,88.8075 200,75 L 200,25 C 200.0,11.1925 211.1925,0.0 225,0 L 275,0 C 288.8075,0.0 300.0,11.1925 300,25 L 300,75 C 300.0,88.8075 311.1925,100.0 325,100 z " />
</g>
</defs>
</g>
<rect width="584" height="584" rx="25" ry="25" x="8" y="8" stroke-width="8" stroke="#333333" fill="url(#back)" />
<use xlink:href="#form" fill="#26306c" x="50" y="35" />
<use xlink:href="#form" fill="#ffffff" x="50" y="65" />
<use xlink:href="#form" fill="#4d61d9" x="50" y="50" />
</svg>