<?xml version="1.0" encoding="utf-8"?>
<svg 
    xmlns="http://www.w3.org/2000/svg" 
    xmlns:xlink="http://www.w3.org/1999/xlink"
    version="1.1"
    width="600" 
    height="600"
>
<title>Avatar</title>
<g>
<defs>
<linearGradient gradientUnits="userSpaceOnUse" x1="300" x2="300" y1="600" y2="0" id="back">
<stop offset="0%" stop-color="#e0e0e0"/>
<stop offset="100%" stop-color="#f0f0f0"/>
</linearGradient>
<g id="form">
<!--
based on sequence [r1m6662p626244266244842448668448686862z]
-->
<path 
    d="M 336.09811731,77.8037653793 L 338.203277954,78.175432558 L 340.294830502,78.5541193007 L 342.372590531,78.9396471648 L 344.436383461,79.3318371192 L 346.486044481,79.7305097388 L 348.521418472,80.1354853931 L 350.542359905,80.5465844305 L 352.548732737,80.9636273563 L 354.540410297,81.3864350049 L 356.517275152,81.8148287066 L 358.479218977,82.2486304477 L 360.426142404,82.6876630248 L 362.35795487,83.1317501924 L 364.274574461,83.5807168047 L 366.175927735,84.0343889502 L 368.061949556,84.49259408 L 369.932582912,84.9551611303 L 371.787778728,85.4219206377 L 373.627495681,85.892704848 L 375.451700006,86.3673478189 L 377.260365297,86.8456855164 L 379.053472315,87.3275559049 L 380.831008782,87.8127990303 L 382.592969179,88.3012570988 L 384.339354544,88.7927745476 C 395.972341646,92.257433878 407.742566122,104.027658354 411.207225452,115.660645456 L 411.698742901,117.407030821 L 412.18720097,119.168991218 L 412.672444095,120.946527685 L 413.154314484,122.739634703 L 413.632652181,124.548299994 L 414.107295152,126.372504319 L 414.578079362,128.212221272 L 415.04483887,130.067417088 L 415.50740592,131.938050444 L 415.96561105,133.824072265 L 416.419283195,135.725425539 L 416.868249808,137.64204513 L 417.312336975,139.573857596 L 417.751369552,141.520781023 L 418.185171293,143.482724848 L 418.613564995,145.459589703 L 419.036372644,147.451267263 L 419.453415569,149.457640095 L 419.864514607,151.478581528 L 420.269490261,153.513955519 L 420.668162881,155.563616539 L 421.060352835,157.627409469 L 421.445880699,159.705169498 L 421.824567442,161.796722046 L 422.196234621,163.90188269 C 424.556376635,178.789726152 434.574868579,192.747066836 444.135384529,194.532747277 L 445.451260159,194.787779616 L 446.750357412,195.041799606 L 448.032899968,195.294779014 L 449.299110362,195.546691158 L 450.549209851,195.797510851 L 451.783418302,196.047214358 L 453.001954087,196.295779342 L 454.205033976,196.543184823 L 455.392873051,196.789411127 L 456.565684617,197.034439842 L 457.723680131,197.278253774 L 458.867069122,197.520836904 L 459.996059137,197.762174344 L 461.110855673,198.002252297 L 462.211662133,198.241058016 L 463.298679772,198.478579765 L 464.372107661,198.71480678 L 465.432142645,198.949729231 L 466.478979315,199.183338189 L 467.512809976,199.415625587 L 468.533824627,199.646584187 L 469.54221094,199.876207548 L 470.53815424,200.104489991 L 471.521837498,200.33142657 L 472.493441317,200.557013041 C 478.885738568,202.077355492 484.730031557,213.562857201 485.665348722,226.433465128 L 485.768001391,228.309343872 L 485.862227954,230.187572852 L 485.947995187,232.067952366 L 486.025272775,233.950281451 L 486.094033347,235.834357999 L 486.154252503,237.71997887 L 486.205908838,239.606940011 L 486.248983964,241.495036577 L 486.283462528,243.384063049 L 486.309332231,245.273813355 L 486.326583836,247.164080994 L 486.33521118,249.054659155 L 486.33521118,250.945340845 L 486.326583836,252.835919006 L 486.309332231,254.726186645 L 486.283462528,256.615936951 L 486.248983964,258.504963423 L 486.205908838,260.393059989 L 486.154252503,262.28002113 L 486.094033347,264.165642001 L 486.025272775,266.049718549 L 485.947995187,267.932047634 L 485.862227954,269.812427148 L 485.768001391,271.690656128 L 485.665348722,273.566534872 C 484.730031557,286.437142799 478.885738568,297.922644508 472.493441317,299.442986959 L 469.54221094,300.123792452 L 466.478979315,300.816661811 L 463.298679772,301.521420235 L 459.996059137,302.237825656 L 456.565684617,302.965560158 L 453.001954087,303.704220658 L 449.299110362,304.453308842 L 445.451260159,305.212220384 L 441.452398488,305.980233476 L 437.296439287,306.756496754 L 432.977253164,307.540016718 L 428.488713147,308.329644819 L 423.824749352,309.124064406 L 418.979413463,309.921777824 L 413.946953828,310.72109401 L 408.721901885,311.52011701 L 403.299170386,312.316735929 L 397.674163645,313.108616942 L 391.842899611,313.893198023 L 385.802143084,314.667687183 L 379.549548785,315.429065043 L 373.083812224,316.174092594 L 366.404825509,316.899325005 L 359.513834299,317.601132283 L 352.413591165,318.275727443 C 335.306459767,319.70336215 319.70336215,335.306459767 318.275727443,352.413591165 L 318.054125147,354.803352726 L 317.829211788,357.170154625 L 317.601132283,359.513834299 L 317.370030213,361.834250153 L 317.136047651,364.131281007 L 316.899325005,366.404825509 L 316.660000868,368.654801544 L 316.418211877,370.881145616 L 316.174092594,373.083812224 L 315.927775382,375.262773226 L 315.679390309,377.418017199 L 315.429065043,379.549548785 L 315.176924778,381.657388051 L 314.923092151,383.741569831 L 314.667687183,385.802143084 L 314.410827218,387.839170246 L 314.152626878,389.852726593 L 313.893198023,391.842899611 L 313.632649721,393.809788369 L 313.371088222,395.75350291 L 313.108616942,397.674163645 L 312.845336457,399.571900768 L 312.581344492,401.44685367 L 312.316735929,403.299170386 L 312.051602814,405.129007036 C 310.213770971,417.162460282 321.210273848,424.556376635 336.09811731,422.196234621 L 342.372590531,421.060352835 L 348.521418472,419.864514607 L 354.540410297,418.613564995 L 360.426142404,417.312336975 L 366.175927735,415.96561105 L 371.787778728,414.578079362 L 377.260365297,413.154314484 L 382.592969179,411.698742901 L 387.785435881,410.215623117 L 392.838125345,408.709028162 L 397.751862324,407.18283226 L 402.527887293,405.640701319 L 407.167808618,404.086086881 L 411.673556543,402.522223154 L 416.047339424,400.952126749 L 420.291602538,399.378598717 L 424.40898969,397.804228551 L 428.402307735,396.231399783 L 432.274494068,394.662296879 L 436.028587074,393.098913134 L 439.667699477,391.543059311 L 443.194994477,389.99637281 L 446.613664549,388.460327147 L 449.926912749,386.936241609 L 453.137936371,385.425290914 C 460.156250391,382.003549129 462.761045549,387.181939338 459.295969207,396.507178445 L 458.786205456,397.820633463 L 458.274704909,399.124688715 L 457.761549099,400.419361548 L 457.246818441,401.704671099 L 456.730592224,402.980638245 L 456.212948595,404.247285549 L 455.693964561,405.504637208 L 455.173715973,406.752719003 L 454.652277525,407.991558249 L 454.129722749,409.221183744 L 453.60612401,410.44162572 L 453.081552501,411.652915791 L 452.556078248,412.855086911 L 452.0297701,414.048173321 L 451.502695734,415.232210502 L 450.974921657,416.407235132 L 450.446513202,417.573285037 L 449.917534536,418.730399148 L 449.388048658,419.878617456 L 448.858117405,421.017980968 L 448.327801457,422.148531665 L 447.797160341,423.270312459 L 447.266252435,424.383367153 L 446.735134977,425.487740399 L 446.203864069,426.583477662 C 442.536234608,433.916387384 433.916387384,442.536234608 426.583477662,446.203864069 L 423.270312459,447.797160341 L 419.878617456,449.388048658 L 416.407235132,450.974921657 L 412.855086911,452.556078248 L 409.221183744,454.129722749 L 405.504637208,455.693964561 L 401.704671099,457.246818441 L 397.820633463,458.786205456 L 393.852008994,460.309954669 L 389.798431731,461.815805653 L 385.659697952,463.301411875 L 381.435779165,464.764345041 L 377.126835059,466.20210044 L 372.733226289,467.61210335 L 368.255526933,468.991716543 L 363.694536448,470.33824893 L 359.051290953,471.648965351 L 354.327073636,472.921097512 L 349.523424089,474.151856056 L 344.642146368,475.338443733 L 339.685315558,476.47806959 L 334.655282652,477.567964118 L 329.554677542,478.605395235 L 324.386409933,479.587684978 L 319.153668021,480.512226736 C 306.886249716,482.406952306 297.922644508,478.885738568 299.442986959,472.493441317 L 299.66857343,471.521837498 L 299.895510009,470.53815424 L 300.123792452,469.54221094 L 300.353415813,468.533824627 L 300.584374413,467.512809976 L 300.816661811,466.478979315 L 301.050270769,465.432142645 L 301.28519322,464.372107661 L 301.521420235,463.298679772 L 301.758941984,462.211662133 L 301.997747703,461.110855673 L 302.237825656,459.996059137 L 302.479163096,458.867069122 L 302.721746226,457.723680131 L 302.965560158,456.565684617 L 303.210588873,455.392873051 L 303.456815177,454.205033976 L 303.704220658,453.001954087 L 303.952785642,451.783418302 L 304.202489149,450.549209851 L 304.453308842,449.299110362 L 304.705220986,448.032899968 L 304.958200394,446.750357412 L 305.212220384,445.451260159 L 305.467252723,444.135384529 C 307.252933164,434.574868579 295.92527159,427.511840199 279.786965387,428.721792324 L 277.424480296,428.855306277 L 275.056918235,428.97798739 L 272.684702948,429.089760115 L 270.308262938,429.190555334 L 267.928031048,429.280310482 L 265.544444037,429.358969659 L 263.15794214,429.426483729 L 260.768968625,429.482810411 L 258.377969336,429.52791435 L 255.98539224,429.561767188 L 253.591686952,429.584347608 L 251.197304276,429.59564138 L 248.802695724,429.59564138 L 246.408313048,429.584347608 L 244.01460776,429.561767188 L 241.622030664,429.52791435 L 239.231031375,429.482810411 L 236.84205786,429.426483729 L 234.455555963,429.358969659 L 232.071968952,429.280310482 L 229.691737062,429.190555334 L 227.315297052,429.089760115 L 224.943081765,428.97798739 L 222.575519704,428.855306277 L 220.213034613,428.721792324 C 204.07472841,427.511840199 192.747066836,434.574868579 194.532747277,444.135384529 L 194.787779616,445.451260159 L 195.041799606,446.750357412 L 195.294779014,448.032899968 L 195.546691158,449.299110362 L 195.797510851,450.549209851 L 196.047214358,451.783418302 L 196.295779342,453.001954087 L 196.543184823,454.205033976 L 196.789411127,455.392873051 L 197.034439842,456.565684617 L 197.278253774,457.723680131 L 197.520836904,458.867069122 L 197.762174344,459.996059137 L 198.002252297,461.110855673 L 198.241058016,462.211662133 L 198.478579765,463.298679772 L 198.71480678,464.372107661 L 198.949729231,465.432142645 L 199.183338189,466.478979315 L 199.415625587,467.512809976 L 199.646584187,468.533824627 L 199.876207548,469.54221094 L 200.104489991,470.53815424 L 200.33142657,471.521837498 L 200.557013041,472.493441317 C 202.077355492,478.885738568 193.113750284,482.406952306 180.846331979,480.512226736 L 175.613590067,479.587684978 L 170.445322458,478.605395235 L 165.344717348,477.567964118 L 160.314684442,476.47806959 L 155.357853632,475.338443733 L 150.476575911,474.151856056 L 145.672926364,472.921097512 L 140.948709047,471.648965351 L 136.305463552,470.33824893 L 131.744473067,468.991716543 L 127.266773711,467.61210335 L 122.873164941,466.20210044 L 118.564220835,464.764345041 L 114.340302048,463.301411875 L 110.201568269,461.815805653 L 106.147991006,460.309954669 L 102.179366537,458.786205456 L 98.2953289009,457.246818441 L 94.4953627921,455.693964561 L 90.7788162558,454.129722749 L 87.1449130886,452.556078248 L 83.5927648681,450.974921657 L 80.1213825437,449.388048658 L 76.7296875412,447.797160341 L 73.4165223381,446.203864069 C 66.0836126156,442.536234608 57.4637653922,433.916387384 53.7961359312,426.583477662 L 53.264865023,425.487740399 L 52.7337475648,424.383367153 L 52.2028396589,423.270312459 L 51.6721985428,422.148531665 L 51.1418825951,421.017980968 L 50.6119513424,419.878617456 L 50.0824654641,418.730399148 L 49.5534867977,417.573285037 L 49.0250783431,416.407235132 L 48.4973042658,415.232210502 L 47.9702299004,414.048173321 L 47.443921752,412.855086911 L 46.9184474985,411.652915791 L 46.3938759904,410.44162572 L 45.870277251,409.221183744 L 45.3477224751,407.991558249 L 44.8262840275,406.752719003 L 44.3060354393,405.504637208 L 43.7870514048,404.247285549 L 43.2694077764,402.980638245 L 42.7531815586,401.704671099 L 42.238450901,400.419361548 L 41.725295091,399.124688715 L 41.2137945438,397.820633463 L 40.7040307925,396.507178445 C 37.2389544512,387.181939338 39.8437496085,382.003549129 46.8620636291,385.425290914 L 50.0730872505,386.936241609 L 53.3863354514,388.460327147 L 56.8050055228,389.99637281 L 60.3323005228,391.543059311 L 63.9714129262,393.098913134 L 67.7255059322,394.662296879 L 71.5976922646,396.231399783 L 75.5910103097,397.804228551 L 79.7083974623,399.378598717 L 83.9526605763,400.952126749 L 88.3264434567,402.522223154 L 92.8321913819,404.086086881 L 97.4721127072,405.640701319 L 102.248137676,407.18283226 L 107.161874655,408.709028162 L 112.214564119,410.215623117 L 117.407030821,411.698742901 L 122.739634703,413.154314484 L 128.212221272,414.578079362 L 133.824072265,415.96561105 L 139.573857596,417.312336975 L 145.459589703,418.613564995 L 151.478581528,419.864514607 L 157.627409469,421.060352835 L 163.90188269,422.196234621 C 178.789726152,424.556376635 189.786229029,417.162460282 187.948397186,405.129007036 L 187.683264071,403.299170386 L 187.418655508,401.44685367 L 187.154663543,399.571900768 L 186.891383058,397.674163645 L 186.628911778,395.75350291 L 186.367350279,393.809788369 L 186.106801977,391.842899611 L 185.847373122,389.852726593 L 185.589172782,387.839170246 L 185.332312817,385.802143084 L 185.076907849,383.741569831 L 184.823075222,381.657388051 L 184.570934957,379.549548785 L 184.320609691,377.418017199 L 184.072224618,375.262773226 L 183.825907406,373.083812224 L 183.581788123,370.881145616 L 183.339999132,368.654801544 L 183.100674995,366.404825509 L 182.863952349,364.131281007 L 182.629969787,361.834250153 L 182.398867717,359.513834299 L 182.170788212,357.170154625 L 181.945874853,354.803352726 L 181.724272557,352.413591165 C 180.29663785,335.306459767 164.693540233,319.70336215 147.586408835,318.275727443 L 140.486165701,317.601132283 L 133.595174491,316.899325005 L 126.916187776,316.174092594 L 120.450451215,315.429065043 L 114.197856916,314.667687183 L 108.157100389,313.893198023 L 102.325836355,313.108616942 L 96.700829614,312.316735929 L 91.2780981152,311.52011701 L 86.0530461718,310.72109401 L 81.0205865371,309.921777824 L 76.1752506476,309.124064406 L 71.511286853,308.329644819 L 67.0227468356,307.540016718 L 62.7035607126,306.756496754 L 58.547601512,305.980233476 L 54.5487398413,305.212220384 L 50.7008896381,304.453308842 L 46.9980459128,303.704220658 L 43.4343153826,302.965560158 L 40.0039408631,302.237825656 L 36.7013202277,301.521420235 L 33.5210206854,300.816661811 L 30.45778906,300.123792452 L 27.5065586825,299.442986959 C 21.1142614323,297.922644508 15.2699684435,286.437142799 14.334651278,273.566534872 L 14.2319986094,271.690656128 L 14.1377720456,269.812427148 L 14.0520048128,267.932047634 L 13.9747272249,266.049718549 L 13.9059666528,264.165642001 L 13.8457474968,262.28002113 L 13.7940911621,260.393059989 L 13.7510160364,258.504963423 L 13.7165374719,256.615936951 L 13.6906677689,254.726186645 L 13.673416164,252.835919006 L 13.6647888201,250.945340845 L 13.6647888201,249.054659155 L 13.673416164,247.164080994 L 13.6906677689,245.273813355 L 13.7165374719,243.384063049 L 13.7510160364,241.495036577 L 13.7940911621,239.606940011 L 13.8457474968,237.71997887 L 13.9059666528,235.834357999 L 13.9747272249,233.950281451 L 14.0520048128,232.067952366 L 14.1377720456,230.187572852 L 14.2319986094,228.309343872 L 14.334651278,226.433465128 C 15.2699684435,213.562857201 21.1142614323,202.077355492 27.5065586825,200.557013041 L 28.4781625016,200.33142657 L 29.4618457596,200.104489991 L 30.45778906,199.876207548 L 31.4661753725,199.646584187 L 32.4871900241,199.415625587 L 33.5210206854,199.183338189 L 34.567857355,198.949729231 L 35.627892339,198.71480678 L 36.7013202277,198.478579765 L 37.788337867,198.241058016 L 38.8891443267,198.002252297 L 40.0039408631,197.762174344 L 41.1329308776,197.520836904 L 42.2763198693,197.278253774 L 43.4343153826,197.034439842 L 44.6071269493,196.789411127 L 45.7949660238,196.543184823 L 46.9980459128,196.295779342 L 48.2165816976,196.047214358 L 49.4507901495,195.797510851 L 50.7008896381,195.546691158 L 51.9671000316,195.294779014 L 53.2496425885,195.041799606 L 54.5487398413,194.787779616 L 55.8646154711,194.532747277 C 65.4251314208,192.747066836 75.4436233649,178.789726152 77.8037653793,163.90188269 L 78.175432558,161.796722046 L 78.5541193007,159.705169498 L 78.9396471648,157.627409469 L 79.3318371192,155.563616539 L 79.7305097388,153.513955519 L 80.1354853931,151.478581528 L 80.5465844305,149.457640095 L 80.9636273563,147.451267263 L 81.3864350049,145.459589703 L 81.8148287066,143.482724848 L 82.2486304477,141.520781023 L 82.6876630248,139.573857596 L 83.1317501924,137.64204513 L 83.5807168047,135.725425539 L 84.0343889502,133.824072265 L 84.49259408,131.938050444 L 84.9551611303,130.067417088 L 85.4219206377,128.212221272 L 85.892704848,126.372504319 L 86.3673478189,124.548299994 L 86.8456855164,122.739634703 L 87.3275559049,120.946527685 L 87.8127990303,119.168991218 L 88.3012570988,117.407030821 L 88.7927745476,115.660645456 C 92.257433878,104.027658354 104.027658354,92.257433878 115.660645456,88.7927745476 L 117.407030821,88.3012570988 L 119.168991218,87.8127990303 L 120.946527685,87.3275559049 L 122.739634703,86.8456855164 L 124.548299994,86.3673478189 L 126.372504319,85.892704848 L 128.212221272,85.4219206377 L 130.067417088,84.9551611303 L 131.938050444,84.49259408 L 133.824072265,84.0343889502 L 135.725425539,83.5807168047 L 137.64204513,83.1317501924 L 139.573857596,82.6876630248 L 141.520781023,82.2486304477 L 143.482724848,81.8148287066 L 145.459589703,81.3864350049 L 147.451267263,80.9636273563 L 149.457640095,80.5465844305 L 151.478581528,80.1354853931 L 153.513955519,79.7305097388 L 155.563616539,79.3318371192 L 157.627409469,78.9396471648 L 159.705169498,78.5541193007 L 161.796722046,78.175432558 L 163.90188269,77.8037653793 C 178.789726152,75.4436233649 192.747066836,65.4251314208 194.532747277,55.8646154711 L 194.787779616,54.5487398413 L 195.041799606,53.2496425885 L 195.294779014,51.9671000316 L 195.546691158,50.7008896381 L 195.797510851,49.4507901495 L 196.047214358,48.2165816976 L 196.295779342,46.9980459128 L 196.543184823,45.7949660238 L 196.789411127,44.6071269493 L 197.034439842,43.4343153826 L 197.278253774,42.2763198693 L 197.520836904,41.1329308776 L 197.762174344,40.0039408631 L 198.002252297,38.8891443267 L 198.241058016,37.788337867 L 198.478579765,36.7013202277 L 198.71480678,35.627892339 L 198.949729231,34.567857355 L 199.183338189,33.5210206854 L 199.415625587,32.4871900241 L 199.646584187,31.4661753725 L 199.876207548,30.45778906 L 200.104489991,29.4618457596 L 200.33142657,28.4781625016 L 200.557013041,27.5065586825 C 202.077355492,21.1142614323 213.562857201,15.2699684435 226.433465128,14.334651278 L 228.309343872,14.2319986094 L 230.187572852,14.1377720456 L 232.067952366,14.0520048128 L 233.950281451,13.9747272249 L 235.834357999,13.9059666528 L 237.71997887,13.8457474968 L 239.606940011,13.7940911621 L 241.495036577,13.7510160364 L 243.384063049,13.7165374719 L 245.273813355,13.6906677689 L 247.164080994,13.673416164 L 249.054659155,13.6647888201 L 250.945340845,13.6647888201 L 252.835919006,13.673416164 L 254.726186645,13.6906677689 L 256.615936951,13.7165374719 L 258.504963423,13.7510160364 L 260.393059989,13.7940911621 L 262.28002113,13.8457474968 L 264.165642001,13.9059666528 L 266.049718549,13.9747272249 L 267.932047634,14.0520048128 L 269.812427148,14.1377720456 L 271.690656128,14.2319986094 L 273.566534872,14.334651278 C 286.437142799,15.2699684435 297.922644508,21.1142614323 299.442986959,27.5065586825 L 299.66857343,28.4781625016 L 299.895510009,29.4618457596 L 300.123792452,30.45778906 L 300.353415813,31.4661753725 L 300.584374413,32.4871900241 L 300.816661811,33.5210206854 L 301.050270769,34.567857355 L 301.28519322,35.627892339 L 301.521420235,36.7013202277 L 301.758941984,37.788337867 L 301.997747703,38.8891443267 L 302.237825656,40.0039408631 L 302.479163096,41.1329308776 L 302.721746226,42.2763198693 L 302.965560158,43.4343153826 L 303.210588873,44.6071269493 L 303.456815177,45.7949660238 L 303.704220658,46.9980459128 L 303.952785642,48.2165816976 L 304.202489149,49.4507901495 L 304.453308842,50.7008896381 L 304.705220986,51.9671000316 L 304.958200394,53.2496425885 L 305.212220384,54.5487398413 L 305.467252723,55.8646154711 C 307.252933164,65.4251314208 321.210273848,75.4436233649 336.09811731,77.8037653793 z " />
</g>
</defs>
</g>
<circle cx="300" cy="300" r="292" x="8" y="8" stroke-width="8" stroke="#333333" fill="url(#back)" />
<g transform="translate(50 50) scale(1)">
<use xlink:href="#form" fill="#26306c" y="-15" />
<use xlink:href="#form" fill="#ffffff" y="15" />
<use xlink:href="#form" fill="#4d61d9" y="0" />
</g>
</svg>