<?xml version="1.0" encoding="utf-8"?>
<svg 
    xmlns="http://www.w3.org/2000/svg" 
    xmlns:xlink="http://www.w3.org/1999/xlink"
    version="1.1"
    width="600" 
    height="600"
>
<title>QucikTools Icon</title>
<g>
<defs>
<linearGradient gradientUnits="userSpaceOnUse" x1="300" x2="300" y1="600" y2="0" id="back">
<stop offset="0%" stop-color="#e0e0e0"/>
<stop offset="100%" stop-color="#f0f0f0"/>
</linearGradient>
<g id="form">
<path 
    
    d="
        M 216,0 
        l 68,0 
        a 16,16 0 0,1 16,16 
        l 0,68 
        a 16,16 0 0,0 16,16 
        l 68,0 
        a 16,16 0 0,1 16,16 
        l 0,68 
        a 16,16 0 0,0 16,16 
        l 68,0 
        a 16,16 0 0,1 16,16 
        l 0,68 
        a 16,16 0 0,1 -16,16 
        l -168,0
        a 16,16 0 0,0 -16,16 
        l 0,68 
        a 16,16 0 0,0 16,16 
        l 168,0 
        a 16,16 0 0,1 16,16 
        l 0,68 
        a 16,16 0 0,1 -16,16 
        l -168,0
        a 16,16 0 0,1 -16,-16 
        l 0,-68
        a 16,16 0 0,0 -16,-16 
        l -68,0
        a 16,16 0 0,0 -16,16 
        l 0,68
        a 16,16 0 0,1 -16,16 
        l -168,0
        a 16,16 0 0,1 -16,-16 
        l 0,-68
        a 16,16 0 0,1 16,-16 
        l 168,0 
        a 16,16 0 0,0 16,-16 
        l 0,-68
        a 16,16 0 0,0 -16,-16 
        l -168,0
        a 16,16 0 0,1 -16,-16 
        l 0,-68
        a 16,16 0 0,1 16,-16 
        l 68,0 
        a 16,16 0 0,0 16,-16 
        l 0,-68
        a 16,16 0 0,1 16,-16 
        l 68,0 
        a 16,16 0 0,0 16,-16 
        l 0,-68
        a 16,16 0 0,1 16,-16
        z" />
</g>
</defs>
</g>
<rect width="592" height="592" rx="16" ry="16" x="4" y="4" stroke-width="4" stroke="#000000" fill="url(#back)">
</rect>
<use xlink:href="#form" fill="#2d3189" x="50" y="40" />
<use xlink:href="#form" fill="#ffffff" x="50" y="60" />
<use xlink:href="#form" fill="#4d61d9" x="50" y="50" />
</svg>