<?xml version="1.0" encoding="utf-8"?>
<svg 
    xmlns="http://www.w3.org/2000/svg" 
    xmlns:xlink="http://www.w3.org/1999/xlink"
    version="1.1"
    width="600" 
    height="600"
>
<title>Avatar</title>
<g>
<defs>
<linearGradient gradientUnits="userSpaceOnUse" x1="300" x2="300" y1="600" y2="0" id="back">
<stop offset="0%" stop-color="#e0e0e0"/>
<stop offset="100%" stop-color="#f0f0f0"/>
</linearGradient>
<g id="form">
<!--
based on sequence [r1m6662p626244266244842448668448686862z]
-->
<path 
    d="M 325,100 l 50,0 a 25,25 0 0,1 25,25 l 0,50 a 25,25 0 0,0 25,25 l 50,0 a 25,25 0 0,1 25,25 l 0,50 a 25,25 0 0,1 -25,25 l -150,0 a 25,25 0 0,0 -25,25 l 0,50 a 25,25 0 0,0 25,25 l 150,0 a 25,25 0 0,1 25,25 l 0,50 a 25,25 0 0,1 -25,25 l -150,0 a 25,25 0 0,1 -25,-25 l 0,-50 a 25,25 0 0,0 -25,-25 l -50,0 a 25,25 0 0,0 -25,25 l 0,50 a 25,25 0 0,1 -25,25 l -150,0 a 25,25 0 0,1 -25,-25 l 0,-50 a 25,25 0 0,1 25,-25 l 150,0 a 25,25 0 0,0 25,-25 l 0,-50 a 25,25 0 0,0 -25,-25 l -150,0 a 25,25 0 0,1 -25,-25 l 0,-50 a 25,25 0 0,1 25,-25 l 50,0 a 25,25 0 0,0 25,-25 l 0,-50 a 25,25 0 0,1 25,-25 l 50,0 a 25,25 0 0,0 25,-25 l 0,-50 a 25,25 0 0,1 25,-25 l 50,0 a 25,25 0 0,1 25,25 l 0,50 a 25,25 0 0,0 25,25 z " />
</g>
</defs>
</g>
<rect width="584" height="584" rx="25" ry="25" x="8" y="8" stroke-width="8" stroke="#333333" fill="url(#back)">
</rect>
<use xlink:href="#form" fill="#26306c" x="50" y="35" />
<use xlink:href="#form" fill="#ffffff" x="50" y="65" />
<use xlink:href="#form" fill="#4d61d9" x="50" y="50" />
</svg>