<?xml version="1.0" encoding="utf-8"?>
<svg 
    xmlns="http://www.w3.org/2000/svg" 
    xmlns:xlink="http://www.w3.org/1999/xlink"
    version="1.1"
    width="600" 
    height="600"
>
<title>Avatar</title>
<g>
<defs>
<linearGradient gradientUnits="userSpaceOnUse" x1="300" x2="300" y1="600" y2="0" id="back">
<stop offset="0%" stop-color="#e0e0e0"/>
<stop offset="100%" stop-color="#f0f0f0"/>
</linearGradient>
<g id="form">
<!--
based on sequence [r1p626862686222224444488888z r0m6622p2684z r0m6222p2684z r0m666222p2684z]
-->
<path 
    d="M 25,0 L 75,0 C 88.8075,0.0 100.0,11.1925 100,25 L 100,75 C 100.0,88.8075 111.1925,100.0 125,100 L 175,100 C 188.8075,100.0 200.0,88.8075 200,75 L 200,25 C 200.0,11.1925 211.1925,0.0 225,0 L 275,0 C 288.8075,0.0 300.0,11.1925 300,25 L 300,75 C 300.0,88.8075 311.1925,100.0 325,100 L 375,100 C 388.8075,100.0 400.0,88.8075 400,75 L 400,25 C 400.0,11.1925 411.1925,0.0 425,0 L 475,0 C 488.8075,0.0 500.0,11.1925 500,25 L 500,475 C 500.0,488.8075 488.8075,500.0 475,500 L 25,500 C 11.1925,500.0 0.0,488.8075 0,475 L 0,25 C 0.0,11.1925 11.1925,0.0 25,0 z M 200,225 L 200,275 C 200.0,288.8075 211.1925,300.0 225,300 L 275,300 C 288.8075,300.0 300.0,288.8075 300,275 L 300,225 C 300.0,211.1925 288.8075,200.0 275,200 L 225,200 C 211.1925,200.0 200.0,211.1925 200,225 z M 100,325 L 100,375 C 100.0,388.8075 111.1925,400.0 125,400 L 175,400 C 188.8075,400.0 200.0,388.8075 200,375 L 200,325 C 200.0,311.1925 188.8075,300.0 175,300 L 125,300 C 111.1925,300.0 100.0,311.1925 100,325 z M 300,325 L 300,375 C 300.0,388.8075 311.1925,400.0 325,400 L 375,400 C 388.8075,400.0 400.0,388.8075 400,375 L 400,325 C 400.0,311.1925 388.8075,300.0 375,300 L 325,300 C 311.1925,300.0 300.0,311.1925 300,325 z " />
</g>
</defs>
</g>
<circle cx="300" cy="300" r="292" x="8" y="8" stroke-width="8" stroke="#333333" fill="url(#back)" />
<g transform="translate(100 100) scale(0.8)">
<use xlink:href="#form" fill="#5b2569" y="-15" />
<use xlink:href="#form" fill="#ffffff" y="15" />
<use xlink:href="#form" fill="#b74ad3" y="0" />
</g>
</svg>