<?xml version="1.0" encoding="utf-8"?>
<svg 
    xmlns="http://www.w3.org/2000/svg" 
    xmlns:xlink="http://www.w3.org/1999/xlink"
    version="1.1"
    width="600" 
    height="600"
>
<title>Avatar</title>
<g>
<defs>
<linearGradient gradientUnits="userSpaceOnUse" x1="300" x2="300" y1="600" y2="0" id="back">
<stop offset="0%" stop-color="#e0e0e0"/>
<stop offset="100%" stop-color="#f0f0f0"/>
</linearGradient>
<g id="form">
<!--
based on sequence [r1p626862686222224444488888z r0m6622p2684z r0m6222p2684z r0m666222p2684z]
-->
<path 
    d="M 73.4165223381,53.7961359312 L 74.5122596006,53.264865023 L 75.6166328473,52.7337475648 L 76.7296875412,52.2028396589 L 77.8514683351,51.6721985428 L 78.9820190318,51.1418825951 L 80.1213825437,50.6119513424 L 81.2696008517,50.0824654641 L 82.4267149629,49.5534867977 L 83.5927648681,49.0250783431 L 84.767789498,48.4973042658 L 85.9518266791,47.9702299004 L 87.1449130886,47.443921752 L 88.3470842088,46.9184474985 L 89.5583742804,46.3938759904 L 90.7788162558,45.870277251 L 92.0084417508,45.3477224751 L 93.247280997,44.8262840275 L 94.4953627921,44.3060354393 L 95.7527144508,43.7870514048 L 97.0193617546,43.2694077764 L 98.2953289009,42.7531815586 L 99.5806384524,42.238450901 L 100.875311285,41.725295091 L 102.179366537,41.2137945438 L 103.492821555,40.7040307925 C 112.818060662,37.2389544512 117.996450871,39.8437496085 114.574709086,46.8620636291 L 114.072585135,47.9212432342 L 113.56892208,48.9915451982 L 113.063758391,50.0730872505 L 112.557134163,51.1659874231 L 112.049091161,52.2703639979 L 111.539672853,53.3863354514 L 111.028924452,54.5140203963 L 110.516892957,55.6535375204 L 110.00362719,56.8050055228 L 109.489177839,57.9685430463 L 108.973597493,59.1442686075 L 108.456940689,60.3323005228 L 107.939263944,61.5327568324 L 107.420625801,62.7457552193 L 106.901086866,63.9714129262 L 106.380709846,65.2098466682 L 105.859559588,66.4611725422 L 105.337703121,67.7255059322 L 104.815209689,69.0029614119 L 104.292150791,70.2936526418 L 103.768600217,71.5976922646 L 103.244634084,72.9151917947 L 102.72033087,74.246261505 L 102.195771449,75.5910103097 L 101.671039122,76.949545642 C 98.0509460295,86.713014119 104.027658354,92.257433878 115.660645456,88.7927745476 L 117.407030821,88.3012570988 L 119.168991218,87.8127990303 L 120.946527685,87.3275559049 L 122.739634703,86.8456855164 L 124.548299994,86.3673478189 L 126.372504319,85.892704848 L 128.212221272,85.4219206377 L 130.067417088,84.9551611303 L 131.938050444,84.49259408 L 133.824072265,84.0343889502 L 135.725425539,83.5807168047 L 137.64204513,83.1317501924 L 139.573857596,82.6876630248 L 141.520781023,82.2486304477 L 143.482724848,81.8148287066 L 145.459589703,81.3864350049 L 147.451267263,80.9636273563 L 149.457640095,80.5465844305 L 151.478581528,80.1354853931 L 153.513955519,79.7305097388 L 155.563616539,79.3318371192 L 157.627409469,78.9396471648 L 159.705169498,78.5541193007 L 161.796722046,78.175432558 L 163.90188269,77.8037653793 C 178.789726152,75.4436233649 192.747066836,65.4251314208 194.532747277,55.8646154711 L 194.787779616,54.5487398413 L 195.041799606,53.2496425885 L 195.294779014,51.9671000316 L 195.546691158,50.7008896381 L 195.797510851,49.4507901495 L 196.047214358,48.2165816976 L 196.295779342,46.9980459128 L 196.543184823,45.7949660238 L 196.789411127,44.6071269493 L 197.034439842,43.4343153826 L 197.278253774,42.2763198693 L 197.520836904,41.1329308776 L 197.762174344,40.0039408631 L 198.002252297,38.8891443267 L 198.241058016,37.788337867 L 198.478579765,36.7013202277 L 198.71480678,35.627892339 L 198.949729231,34.567857355 L 199.183338189,33.5210206854 L 199.415625587,32.4871900241 L 199.646584187,31.4661753725 L 199.876207548,30.45778906 L 200.104489991,29.4618457596 L 200.33142657,28.4781625016 L 200.557013041,27.5065586825 C 202.077355492,21.1142614323 213.562857201,15.2699684435 226.433465128,14.334651278 L 228.309343872,14.2319986094 L 230.187572852,14.1377720456 L 232.067952366,14.0520048128 L 233.950281451,13.9747272249 L 235.834357999,13.9059666528 L 237.71997887,13.8457474968 L 239.606940011,13.7940911621 L 241.495036577,13.7510160364 L 243.384063049,13.7165374719 L 245.273813355,13.6906677689 L 247.164080994,13.673416164 L 249.054659155,13.6647888201 L 250.945340845,13.6647888201 L 252.835919006,13.673416164 L 254.726186645,13.6906677689 L 256.615936951,13.7165374719 L 258.504963423,13.7510160364 L 260.393059989,13.7940911621 L 262.28002113,13.8457474968 L 264.165642001,13.9059666528 L 266.049718549,13.9747272249 L 267.932047634,14.0520048128 L 269.812427148,14.1377720456 L 271.690656128,14.2319986094 L 273.566534872,14.334651278 C 286.437142799,15.2699684435 297.922644508,21.1142614323 299.442986959,27.5065586825 L 299.66857343,28.4781625016 L 299.895510009,29.4618457596 L 300.123792452,30.45778906 L 300.353415813,31.4661753725 L 300.584374413,32.4871900241 L 300.816661811,33.5210206854 L 301.050270769,34.567857355 L 301.28519322,35.627892339 L 301.521420235,36.7013202277 L 301.758941984,37.788337867 L 301.997747703,38.8891443267 L 302.237825656,40.0039408631 L 302.479163096,41.1329308776 L 302.721746226,42.2763198693 L 302.965560158,43.4343153826 L 303.210588873,44.6071269493 L 303.456815177,45.7949660238 L 303.704220658,46.9980459128 L 303.952785642,48.2165816976 L 304.202489149,49.4507901495 L 304.453308842,50.7008896381 L 304.705220986,51.9671000316 L 304.958200394,53.2496425885 L 305.212220384,54.5487398413 L 305.467252723,55.8646154711 C 307.252933164,65.4251314208 321.210273848,75.4436233649 336.09811731,77.8037653793 L 338.203277954,78.175432558 L 340.294830502,78.5541193007 L 342.372590531,78.9396471648 L 344.436383461,79.3318371192 L 346.486044481,79.7305097388 L 348.521418472,80.1354853931 L 350.542359905,80.5465844305 L 352.548732737,80.9636273563 L 354.540410297,81.3864350049 L 356.517275152,81.8148287066 L 358.479218977,82.2486304477 L 360.426142404,82.6876630248 L 362.35795487,83.1317501924 L 364.274574461,83.5807168047 L 366.175927735,84.0343889502 L 368.061949556,84.49259408 L 369.932582912,84.9551611303 L 371.787778728,85.4219206377 L 373.627495681,85.892704848 L 375.451700006,86.3673478189 L 377.260365297,86.8456855164 L 379.053472315,87.3275559049 L 380.831008782,87.8127990303 L 382.592969179,88.3012570988 L 384.339354544,88.7927745476 C 395.972341646,92.257433878 401.949053971,86.713014119 398.328960878,76.949545642 L 397.804228551,75.5910103097 L 397.27966913,74.246261505 L 396.755365916,72.9151917947 L 396.231399783,71.5976922646 L 395.707849209,70.2936526418 L 395.184790311,69.0029614119 L 394.662296879,67.7255059322 L 394.140440412,66.4611725422 L 393.619290154,65.2098466682 L 393.098913134,63.9714129262 L 392.579374199,62.7457552193 L 392.060736056,61.5327568324 L 391.543059311,60.3323005228 L 391.026402507,59.1442686075 L 390.510822161,57.9685430463 L 389.99637281,56.8050055228 L 389.483107043,55.6535375204 L 388.971075548,54.5140203963 L 388.460327147,53.3863354514 L 387.950908839,52.2703639979 L 387.442865837,51.1659874231 L 386.936241609,50.0730872505 L 386.43107792,48.9915451982 L 385.927414865,47.9212432342 L 385.425290914,46.8620636291 C 382.003549129,39.8437496085 387.181939338,37.2389544512 396.507178445,40.7040307925 L 397.820633463,41.2137945438 L 399.124688715,41.725295091 L 400.419361548,42.238450901 L 401.704671099,42.7531815586 L 402.980638245,43.2694077764 L 404.247285549,43.7870514048 L 405.504637208,44.3060354393 L 406.752719003,44.8262840275 L 407.991558249,45.3477224751 L 409.221183744,45.870277251 L 410.44162572,46.3938759904 L 411.652915791,46.9184474985 L 412.855086911,47.443921752 L 414.048173321,47.9702299004 L 415.232210502,48.4973042658 L 416.407235132,49.0250783431 L 417.573285037,49.5534867977 L 418.730399148,50.0824654641 L 419.878617456,50.6119513424 L 421.017980968,51.1418825951 L 422.148531665,51.6721985428 L 423.270312459,52.2028396589 L 424.383367153,52.7337475648 L 425.487740399,53.264865023 L 426.583477662,53.7961359312 C 433.916387384,57.4637653922 442.536234608,66.0836126156 446.203864069,73.4165223381 L 450.974921657,83.5927648681 L 455.693964561,94.4953627921 L 460.309954669,106.147991006 L 464.764345041,118.564220835 L 468.991716543,131.744473067 L 472.921097512,145.672926364 L 476.47806959,160.314684442 L 479.587684978,175.613590067 L 482.178102428,191.491118188 L 484.184703602,207.846753352 L 485.554306054,224.560134946 L 486.248983964,241.495036577 L 486.248983964,258.504963423 L 485.554306054,275.439865054 L 484.184703602,292.153246648 L 482.178102428,308.508881812 L 479.587684978,324.386409933 L 476.47806959,339.685315558 L 472.921097512,354.327073636 L 468.991716543,368.255526933 L 464.764345041,381.435779165 L 460.309954669,393.852008994 L 455.693964561,405.504637208 L 450.974921657,416.407235132 L 446.203864069,426.583477662 C 442.536234608,433.916387384 433.916387384,442.536234608 426.583477662,446.203864069 L 416.407235132,450.974921657 L 405.504637208,455.693964561 L 393.852008994,460.309954669 L 381.435779165,464.764345041 L 368.255526933,468.991716543 L 354.327073636,472.921097512 L 339.685315558,476.47806959 L 324.386409933,479.587684978 L 308.508881812,482.178102428 L 292.153246648,484.184703602 L 275.439865054,485.554306054 L 258.504963423,486.248983964 L 241.495036577,486.248983964 L 224.560134946,485.554306054 L 207.846753352,484.184703602 L 191.491118188,482.178102428 L 175.613590067,479.587684978 L 160.314684442,476.47806959 L 145.672926364,472.921097512 L 131.744473067,468.991716543 L 118.564220835,464.764345041 L 106.147991006,460.309954669 L 94.4953627921,455.693964561 L 83.5927648681,450.974921657 L 73.4165223381,446.203864069 C 66.0836126156,442.536234608 57.4637653922,433.916387384 53.7961359312,426.583477662 L 49.0250783431,416.407235132 L 44.3060354393,405.504637208 L 39.6900453305,393.852008994 L 35.235654959,381.435779165 L 31.0082834575,368.255526933 L 27.0789024882,354.327073636 L 23.5219304102,339.685315558 L 20.4123150216,324.386409933 L 17.821897572,308.508881812 L 15.815296398,292.153246648 L 14.4456939461,275.439865054 L 13.7510160364,258.504963423 L 13.7510160364,241.495036577 L 14.4456939461,224.560134946 L 15.815296398,207.846753352 L 17.821897572,191.491118188 L 20.4123150216,175.613590067 L 23.5219304102,160.314684442 L 27.0789024882,145.672926364 L 31.0082834575,131.744473067 L 35.235654959,118.564220835 L 39.6900453305,106.147991006 L 44.3060354393,94.4953627921 L 49.0250783431,83.5927648681 L 53.7961359312,73.4165223381 C 57.4637653922,66.0836126156 66.0836126156,57.4637653922 73.4165223381,53.7961359312 z M 177.684960657,213.842480329 L 177.599175371,216.695620671 L 177.520231811,219.558497361 L 177.448208407,222.430319195 L 177.383177208,225.310280251 L 177.325203673,228.197561102 L 177.274346484,231.091330086 L 177.230657371,233.990744622 L 177.194180966,236.894952574 L 177.164954666,239.803093653 L 177.143008526,242.714300853 L 177.128365164,245.62770191 L 177.121039698,248.542420794 L 177.121039698,251.457579206 L 177.128365164,254.37229809 L 177.143008526,257.285699147 L 177.164954666,260.196906347 L 177.194180966,263.105047426 L 177.230657371,266.009255378 L 177.274346484,268.908669914 L 177.325203673,271.802438898 L 177.383177208,274.689719749 L 177.448208407,277.569680805 L 177.520231811,280.441502639 L 177.599175371,283.304379329 L 177.684960657,286.157519671 C 178.456334576,305.528615919 194.471384081,321.543665424 213.842480329,322.315039343 L 216.695620671,322.400824629 L 219.558497361,322.479768189 L 222.430319195,322.551791593 L 225.310280251,322.616822792 L 228.197561102,322.674796327 L 231.091330086,322.725653516 L 233.990744622,322.769342629 L 236.894952574,322.805819034 L 239.803093653,322.835045334 L 242.714300853,322.856991474 L 245.62770191,322.871634836 L 248.542420794,322.878960302 L 251.457579206,322.878960302 L 254.37229809,322.871634836 L 257.285699147,322.856991474 L 260.196906347,322.835045334 L 263.105047426,322.805819034 L 266.009255378,322.769342629 L 268.908669914,322.725653516 L 271.802438898,322.674796327 L 274.689719749,322.616822792 L 277.569680805,322.551791593 L 280.441502639,322.479768189 L 283.304379329,322.400824629 L 286.157519671,322.315039343 C 305.528615919,321.543665424 321.543665424,305.528615919 322.315039343,286.157519671 L 322.400824629,283.304379329 L 322.479768189,280.441502639 L 322.551791593,277.569680805 L 322.616822792,274.689719749 L 322.674796327,271.802438898 L 322.725653516,268.908669914 L 322.769342629,266.009255378 L 322.805819034,263.105047426 L 322.835045334,260.196906347 L 322.856991474,257.285699147 L 322.871634836,254.37229809 L 322.878960302,251.457579206 L 322.878960302,248.542420794 L 322.871634836,245.62770191 L 322.856991474,242.714300853 L 322.835045334,239.803093653 L 322.805819034,236.894952574 L 322.769342629,233.990744622 L 322.725653516,231.091330086 L 322.674796327,228.197561102 L 322.616822792,225.310280251 L 322.551791593,222.430319195 L 322.479768189,219.558497361 L 322.400824629,216.695620671 L 322.315039343,213.842480329 C 321.543665424,194.471384081 305.528615919,178.456334576 286.157519671,177.684960657 L 283.304379329,177.599175371 L 280.441502639,177.520231811 L 277.569680805,177.448208407 L 274.689719749,177.383177208 L 271.802438898,177.325203673 L 268.908669914,177.274346484 L 266.009255378,177.230657371 L 263.105047426,177.194180966 L 260.196906347,177.164954666 L 257.285699147,177.143008526 L 254.37229809,177.128365164 L 251.457579206,177.121039698 L 248.542420794,177.121039698 L 245.62770191,177.128365164 L 242.714300853,177.143008526 L 239.803093653,177.164954666 L 236.894952574,177.194180966 L 233.990744622,177.230657371 L 231.091330086,177.274346484 L 228.197561102,177.325203673 L 225.310280251,177.383177208 L 222.430319195,177.448208407 L 219.558497361,177.520231811 L 216.695620671,177.599175371 L 213.842480329,177.684960657 C 194.471384081,178.456334576 178.456334576,194.471384081 177.684960657,213.842480329 z M 77.8037653793,336.09811731 L 78.175432558,338.203277954 L 78.5541193007,340.294830502 L 78.9396471648,342.372590531 L 79.3318371192,344.436383461 L 79.7305097388,346.486044481 L 80.1354853931,348.521418472 L 80.5465844305,350.542359905 L 80.9636273563,352.548732737 L 81.3864350049,354.540410297 L 81.8148287066,356.517275152 L 82.2486304477,358.479218977 L 82.6876630248,360.426142404 L 83.1317501924,362.35795487 L 83.5807168047,364.274574461 L 84.0343889502,366.175927735 L 84.49259408,368.061949556 L 84.9551611303,369.932582912 L 85.4219206377,371.787778728 L 85.892704848,373.627495681 L 86.3673478189,375.451700006 L 86.8456855164,377.260365297 L 87.3275559049,379.053472315 L 87.8127990303,380.831008782 L 88.3012570988,382.592969179 L 88.7927745476,384.339354544 C 92.257433878,395.972341646 104.027658354,407.742566122 115.660645456,411.207225452 L 117.407030821,411.698742901 L 119.168991218,412.18720097 L 120.946527685,412.672444095 L 122.739634703,413.154314484 L 124.548299994,413.632652181 L 126.372504319,414.107295152 L 128.212221272,414.578079362 L 130.067417088,415.04483887 L 131.938050444,415.50740592 L 133.824072265,415.96561105 L 135.725425539,416.419283195 L 137.64204513,416.868249808 L 139.573857596,417.312336975 L 141.520781023,417.751369552 L 143.482724848,418.185171293 L 145.459589703,418.613564995 L 147.451267263,419.036372644 L 149.457640095,419.453415569 L 151.478581528,419.864514607 L 153.513955519,420.269490261 L 155.563616539,420.668162881 L 157.627409469,421.060352835 L 159.705169498,421.445880699 L 161.796722046,421.824567442 L 163.90188269,422.196234621 C 178.789726152,424.556376635 189.786229029,417.162460282 187.948397186,405.129007036 L 187.683264071,403.299170386 L 187.418655508,401.44685367 L 187.154663543,399.571900768 L 186.891383058,397.674163645 L 186.628911778,395.75350291 L 186.367350279,393.809788369 L 186.106801977,391.842899611 L 185.847373122,389.852726593 L 185.589172782,387.839170246 L 185.332312817,385.802143084 L 185.076907849,383.741569831 L 184.823075222,381.657388051 L 184.570934957,379.549548785 L 184.320609691,377.418017199 L 184.072224618,375.262773226 L 183.825907406,373.083812224 L 183.581788123,370.881145616 L 183.339999132,368.654801544 L 183.100674995,366.404825509 L 182.863952349,364.131281007 L 182.629969787,361.834250153 L 182.398867717,359.513834299 L 182.170788212,357.170154625 L 181.945874853,354.803352726 L 181.724272557,352.413591165 C 180.29663785,335.306459767 164.693540233,319.70336215 147.586408835,318.275727443 L 145.196647274,318.054125147 L 142.829845375,317.829211788 L 140.486165701,317.601132283 L 138.165749847,317.370030213 L 135.868718993,317.136047651 L 133.595174491,316.899325005 L 131.345198456,316.660000868 L 129.118854384,316.418211877 L 126.916187776,316.174092594 L 124.737226774,315.927775382 L 122.581982801,315.679390309 L 120.450451215,315.429065043 L 118.342611949,315.176924778 L 116.258430169,314.923092151 L 114.197856916,314.667687183 L 112.160829754,314.410827218 L 110.147273407,314.152626878 L 108.157100389,313.893198023 L 106.190211631,313.632649721 L 104.24649709,313.371088222 L 102.325836355,313.108616942 L 100.428099232,312.845336457 L 98.5531463296,312.581344492 L 96.700829614,312.316735929 L 94.8709929638,312.051602814 C 82.8375397177,310.213770971 75.4436233649,321.210273848 77.8037653793,336.09811731 z M 318.275727443,352.413591165 L 318.054125147,354.803352726 L 317.829211788,357.170154625 L 317.601132283,359.513834299 L 317.370030213,361.834250153 L 317.136047651,364.131281007 L 316.899325005,366.404825509 L 316.660000868,368.654801544 L 316.418211877,370.881145616 L 316.174092594,373.083812224 L 315.927775382,375.262773226 L 315.679390309,377.418017199 L 315.429065043,379.549548785 L 315.176924778,381.657388051 L 314.923092151,383.741569831 L 314.667687183,385.802143084 L 314.410827218,387.839170246 L 314.152626878,389.852726593 L 313.893198023,391.842899611 L 313.632649721,393.809788369 L 313.371088222,395.75350291 L 313.108616942,397.674163645 L 312.845336457,399.571900768 L 312.581344492,401.44685367 L 312.316735929,403.299170386 L 312.051602814,405.129007036 C 310.213770971,417.162460282 321.210273848,424.556376635 336.09811731,422.196234621 L 338.203277954,421.824567442 L 340.294830502,421.445880699 L 342.372590531,421.060352835 L 344.436383461,420.668162881 L 346.486044481,420.269490261 L 348.521418472,419.864514607 L 350.542359905,419.453415569 L 352.548732737,419.036372644 L 354.540410297,418.613564995 L 356.517275152,418.185171293 L 358.479218977,417.751369552 L 360.426142404,417.312336975 L 362.35795487,416.868249808 L 364.274574461,416.419283195 L 366.175927735,415.96561105 L 368.061949556,415.50740592 L 369.932582912,415.04483887 L 371.787778728,414.578079362 L 373.627495681,414.107295152 L 375.451700006,413.632652181 L 377.260365297,413.154314484 L 379.053472315,412.672444095 L 380.831008782,412.18720097 L 382.592969179,411.698742901 L 384.339354544,411.207225452 C 395.972341646,407.742566122 407.742566122,395.972341646 411.207225452,384.339354544 L 411.698742901,382.592969179 L 412.18720097,380.831008782 L 412.672444095,379.053472315 L 413.154314484,377.260365297 L 413.632652181,375.451700006 L 414.107295152,373.627495681 L 414.578079362,371.787778728 L 415.04483887,369.932582912 L 415.50740592,368.061949556 L 415.96561105,366.175927735 L 416.419283195,364.274574461 L 416.868249808,362.35795487 L 417.312336975,360.426142404 L 417.751369552,358.479218977 L 418.185171293,356.517275152 L 418.613564995,354.540410297 L 419.036372644,352.548732737 L 419.453415569,350.542359905 L 419.864514607,348.521418472 L 420.269490261,346.486044481 L 420.668162881,344.436383461 L 421.060352835,342.372590531 L 421.445880699,340.294830502 L 421.824567442,338.203277954 L 422.196234621,336.09811731 C 424.556376635,321.210273848 417.162460282,310.213770971 405.129007036,312.051602814 L 403.299170386,312.316735929 L 401.44685367,312.581344492 L 399.571900768,312.845336457 L 397.674163645,313.108616942 L 395.75350291,313.371088222 L 393.809788369,313.632649721 L 391.842899611,313.893198023 L 389.852726593,314.152626878 L 387.839170246,314.410827218 L 385.802143084,314.667687183 L 383.741569831,314.923092151 L 381.657388051,315.176924778 L 379.549548785,315.429065043 L 377.418017199,315.679390309 L 375.262773226,315.927775382 L 373.083812224,316.174092594 L 370.881145616,316.418211877 L 368.654801544,316.660000868 L 366.404825509,316.899325005 L 364.131281007,317.136047651 L 361.834250153,317.370030213 L 359.513834299,317.601132283 L 357.170154625,317.829211788 L 354.803352726,318.054125147 L 352.413591165,318.275727443 C 335.306459767,319.70336215 319.70336215,335.306459767 318.275727443,352.413591165 z " />
</g>
</defs>
</g>
<circle cx="300" cy="300" r="292" x="8" y="8" stroke-width="8" stroke="#333333" fill="url(#back)" />
<g transform="translate(50 50) scale(1)">
<use xlink:href="#form" fill="#5b2569" y="-15" />
<use xlink:href="#form" fill="#ffffff" y="15" />
<use xlink:href="#form" fill="#b74ad3" y="0" />
</g>
</svg>